<svg width="32" height="32" viewBox="0 0 32 32" fill="none" xmlns="http://www.w3.org/2000/svg">
<g clip-path="url(#clip0_816_26624)">
<path d="M21.5 10C21.084 10 20.75 10.334 20.75 10.75C20.75 11.166 21.084 11.5 21.5 11.5C21.916 11.5 22.25 11.166 22.25 10.75C22.25 10.334 21.9172 10 21.5 10ZM28.775 4.03271C28.6395 3.97201 28.4798 3.99902 28.3707 4.10082L25.2287 7.00098H22.2713L19.1293 4.10082C19.0202 3.99901 18.8605 3.97055 18.725 4.03271C18.5891 4.09277 18.5 4.22753 18.5 4.37622V11.459C18.5 11.7157 18.54 11.962 18.5758 12.1668H15.875C12.0078 12.1668 8.67969 14.5209 7.25 17.8715V13.375C7.25 10.6872 5.06281 8.5 2.375 8.5C2.16772 8.5 2 8.66772 2 8.875C2 9.08228 2.16772 9.25 2.375 9.25C4.64984 9.25 6.5 11.1002 6.5 13.375V23.875C6.5 26.1498 8.35016 27.9578 10.625 27.9578H18.875C19.0823 27.9578 19.25 27.7901 19.25 27.625V26.125C19.25 25.0909 18.4091 24.25 17.375 24.25H16.3948L21.125 21.1891V26.5C21.125 27.3269 21.7981 27.9578 22.625 27.9578H24.125C24.9519 27.9578 25.625 27.2847 25.625 26.5V16.3891C27.5516 15.6297 29 13.7312 29 11.5V4.37622C29 4.22753 28.9109 4.09277 28.775 4.03271ZM24.875 26.5C24.875 26.9138 24.5388 27.25 24.125 27.25H22.625C22.2112 27.25 21.875 26.9138 21.875 26.5V20.5C21.875 20.202 21.5453 20.0252 21.2966 20.185L15.5 23.9359V23.5002C15.5 21.0187 13.4816 19.0002 11 19.0002C10.7927 19.0002 10.625 19.168 10.625 19.3752C10.625 19.5825 10.7927 19.7502 11 19.7502C13.0677 19.7502 14.75 21.4326 14.75 23.5002V24.6252C14.75 24.8323 14.9179 25.0002 15.125 25.0002H17.375C17.9952 25.0002 18.5 25.5051 18.5 26.1252V27.208L10.625 27.2081C8.76406 27.2081 7.25 25.694 7.25 23.8331V21.6253C7.25 16.8674 11.1195 13.0003 15.875 13.0003L18.7456 13.0002C19.3953 15.1609 21.3781 16.75 23.75 16.75C24.1369 16.75 24.5117 16.7018 24.875 16.6219V26.5ZM28.25 11.5C28.25 13.9811 26.2316 15.9995 23.75 15.9995C21.2684 15.9995 19.25 13.9811 19.25 11.5417V5.23235L21.8708 7.65156C21.9396 7.71592 22.0304 7.75108 22.1249 7.75108H25.3752C25.4697 7.75108 25.5605 7.71592 25.6294 7.65156L28.25 5.23235V11.5ZM25.25 10.75C25.25 11.166 25.584 11.5 26 11.5C26.416 11.5 26.75 11.166 26.75 10.75C26.75 10.334 26.416 10 26 10C25.584 10 25.25 10.3328 25.25 10.75Z" fill="black"/>
</g>
<defs>
<clipPath id="clip0_816_26624">
<rect width="27" height="24" fill="white" transform="translate(2 4)"/>
</clipPath>
</defs>
</svg>
