<svg width="32" height="32" viewBox="0 0 32 32" fill="none" xmlns="http://www.w3.org/2000/svg">
<g clip-path="url(#clip0_816_26547)">
<path d="M23.2503 8.3125C23.2503 8.00172 23.5034 7.75 23.8128 7.75C24.1222 7.75 24.3753 8.00172 24.3753 8.3125C24.3753 8.62328 24.1222 8.875 23.8128 8.875C23.5034 8.875 23.2503 8.62328 23.2503 8.3125ZM18.0003 21.3156C17.7565 21.4187 17.5034 21.5125 17.2503 21.5922C16.4206 21.8172 15.5394 22 14.6253 22C13.7112 22 12.83 21.8172 12.0003 21.5922C11.7472 21.5125 11.494 21.4187 11.2503 21.3156V25.75C11.2503 26.9922 10.2425 28 9.0003 28H8.2503C7.00764 28 6.0003 26.9922 6.0003 25.75V14.9594C4.6517 14.4484 3.5928 13.3047 3.22703 11.8422L3.04515 11.1156C2.8442 10.3094 3.33288 9.49375 4.13655 9.25469C4.94045 9.09531 5.75467 9.58281 5.95577 10.3844L6.13764 11.1156C6.30452 11.7812 6.90452 12.25 7.59264 12.25H17.7519L18.9706 4.93047C19.0597 4.39352 19.5237 4 20.0675 4C20.4191 4 20.7472 4.165 20.9581 4.44541L21.7503 5.5H23.8175C24.4128 5.5 24.9894 5.73719 25.4112 6.15906L26.2503 7H28.5003C29.33 7 30.0003 7.67172 30.0003 8.5V9.625C30.0003 11.4906 28.4909 13 26.6253 13H23.6862L23.2503 15.5828V25.75C23.2503 26.9922 22.2425 28 21.0003 28H20.2503C19.0081 28 18.0003 26.9922 18.0003 25.75V21.3156ZM17.8972 13H7.59264C6.56045 13 5.66045 12.2969 5.40967 11.2938L5.2278 10.5672C5.12749 10.1641 4.72014 9.92031 4.31842 10.0234C3.9167 10.1219 3.67248 10.5297 3.7728 10.9328L3.95467 11.6594C4.25936 12.8781 5.14108 13.8344 6.26608 14.2563L6.7503 14.4391V25.75C6.7503 26.5797 7.42202 27.25 8.2503 27.25H9.0003C9.82999 27.25 10.5003 26.5797 10.5003 25.75V20.1813L11.5456 20.6266C12.4878 21.025 13.5284 21.25 14.6253 21.25C15.7222 21.25 16.7628 21.025 17.705 20.6266L18.7503 20.1813V25.75C18.7503 26.5797 19.4206 27.25 20.2503 27.25H21.0003C21.83 27.25 22.5003 26.5797 22.5003 25.75V15.6859L17.8972 13ZM23.0534 12.25H26.6253C28.0737 12.25 29.2503 11.0734 29.2503 9.625V8.5C29.2503 8.08563 28.9128 7.75 28.5003 7.75H25.9409L24.8769 6.68922C24.5956 6.40797 24.2159 6.25 23.8175 6.25H21.3753L20.3581 4.89531C20.2925 4.80391 20.1847 4.75 20.0675 4.75C19.8894 4.75 19.7394 4.87844 19.7112 5.05375L18.4737 12.4656L22.6128 14.8844L23.0534 12.25ZM20.9487 4.45455L20.3581 4.89531L20.9487 4.45455Z" fill="black"/>
</g>
<defs>
<clipPath id="clip0_816_26547">
<rect width="27" height="24" fill="white" transform="translate(3 4)"/>
</clipPath>
</defs>
</svg>
