<svg width="32" height="32" viewBox="0 0 32 32" fill="none" xmlns="http://www.w3.org/2000/svg">
<path d="M19.5 8.07578C19.5 7.64375 19.8937 7.20078 20.375 7.20078C20.8563 7.20078 21.25 7.64375 21.25 8.07578C21.25 8.60625 20.8563 8.95078 20.375 8.95078C19.8937 8.95078 19.5 8.60625 19.5 8.07578ZM17.575 23.2406L21.1898 29.3383C21.3102 29.5461 21.2445 29.8141 21.0367 29.9398C20.8289 30.0602 20.5609 29.9945 20.4352 29.7867L16.7109 23.4977C15.7594 23.7437 14.7641 23.875 13.7414 23.875C13.4406 23.875 13.1398 23.8641 12.8445 23.8422L15.8961 29.3492C16.0602 29.557 15.9891 29.825 15.7758 29.8961C15.568 30.0602 15.3 29.9891 15.1797 29.7758L11.7672 23.6617C6.24867 22.7703 2 17.9797 2 12.2102C2 11.4008 2.65297 10.75 3.45852 10.75H12.5C13.468 10.75 14.25 9.96797 14.25 9V7.6875C14.25 4.54625 16.7984 2 19.9375 2C22.4805 2 24.6297 3.66797 25.3625 5.96867L29.7867 8.62266C29.918 8.70469 30 8.84687 30 8.95078C30 9.15312 29.918 9.29531 29.7867 9.37734L25.625 11.8711V12.0133C25.625 17.2469 22.2398 21.6492 17.575 23.2406ZM15.125 7.63828V8.95078C15.125 10.4492 13.9492 11.5758 12.5 11.5758H3.45852C3.13641 11.5758 2.875 11.8875 2.875 12.2102C2.875 18.1602 7.76953 23 13.7414 23C19.7844 23 24.75 18.0945 24.75 12.0133V7.63828C24.75 7.29211 24.7008 6.90766 24.6133 6.54016L24.5859 6.52484L24.6023 6.49969C24.0719 4.41609 22.1852 2.82578 19.9375 2.82578C17.2797 2.82578 15.125 5.02969 15.125 7.63828ZM25.625 10.8539L28.7148 8.95078L25.5977 7.13133C25.6141 7.31453 25.625 7.50156 25.625 7.63828V10.8539Z" fill="black"/>
</svg>
