<svg width="32" height="32" viewBox="0 0 32 32" fill="none" xmlns="http://www.w3.org/2000/svg">
<path d="M21.2008 13.3254C21.6841 13.3254 22.0758 12.9337 22.0758 12.4504C22.0758 11.9672 21.6841 11.5754 21.2008 11.5754C20.7175 11.5754 20.3258 11.9672 20.3258 12.4504C20.3258 12.9337 20.7688 13.3254 21.2008 13.3254ZM28.0477 28.0254L22.9995 20.2543V17.2848H23.0319C24.4626 17.2848 25.7286 16.4984 26.2585 15.2827C26.9284 13.7471 26.4636 12.0064 25.127 11.0488L22.6773 9.33872C23.0448 8.65677 23.3609 7.83646 23.5846 6.98552C24.1605 4.83466 24.2288 2.36771 23.0137 2.03302C22.8326 1.98431 22.5505 1.9698 22.207 2.16635C21.4638 2.59532 20.6824 3.92564 20.1699 5.61932C19.6555 3.92729 18.876 2.59455 18.1328 2.16635C17.7893 1.9698 17.5056 1.98435 17.3245 2.03302C16.1094 2.36798 16.1777 4.83466 16.7536 6.98388C17.0714 8.18099 17.5362 9.25068 18.0541 9.9906C17.4531 10.6786 17.2627 11.5607 17.2627 12.2415V15.5654H16.9654C12.645 15.5654 8.84426 18.3873 7.55363 22.4889C6.88535 22.271 6.17113 22.3069 5.49957 22.5949C4.60926 22.9777 3.94426 23.7947 3.7616 24.7266C3.58557 25.6213 3.81116 26.5324 4.38176 27.2242C5.15067 28.161 6.43965 28.5591 7.62528 28.1396C8.36017 29.2833 9.5961 29.9997 10.9359 29.9997H18.5266C19.2342 29.9997 19.8084 29.4254 19.8084 28.7189C19.8084 27.2544 18.6173 26.0622 17.1528 26.0622H16.4096C16.1909 24.0961 14.5196 22.5622 12.4962 22.5622C12.2552 22.5622 12.0587 22.7578 12.0587 22.9997C12.0587 23.2415 12.2552 23.4372 12.4962 23.4372C14.1849 23.4372 15.5587 24.8109 15.5587 26.4997C15.5587 26.7415 15.7552 26.9372 15.9962 26.9372H17.1534C18.1361 26.9372 18.934 27.7361 18.934 28.7189C18.934 28.9428 18.7511 29.1248 18.5272 29.1248H10.9359C9.79407 29.1248 8.74845 28.4456 8.26829 27.3934C8.21873 27.2849 8.12643 27.201 8.01367 27.1617C7.9009 27.1207 7.7761 27.1318 7.67017 27.1856C6.73721 27.6651 5.70635 27.3968 5.10314 26.6652C4.69971 26.1756 4.54096 25.5294 4.66553 24.8923C4.79372 24.2393 5.26381 23.6662 5.89108 23.3949C6.64303 23.0728 7.27686 23.2548 7.67881 23.4658C7.79503 23.5282 7.93688 23.5333 8.05993 23.4804C8.18298 23.4265 8.27354 23.3197 8.30772 23.1899C9.3435 19.2146 12.9239 16.436 17.014 16.436H17.749C17.9899 16.436 18.1865 16.2402 18.1865 15.9984V12.2372C18.1865 12.0332 18.2024 11.0176 18.969 10.3565C19.1485 10.2001 19.1707 9.92749 19.0169 9.7445C18.4888 9.11669 17.9778 7.99943 17.6464 6.75364C17.0159 4.3988 17.3354 2.94685 17.6037 2.87247C17.6105 2.87247 17.6618 2.87247 17.7438 2.91947C18.2445 3.20828 19.0065 4.44799 19.4922 6.25978C19.6255 6.7511 19.7229 7.25017 19.7844 7.74236C19.8118 7.96024 19.9963 8.12517 20.2168 8.12605C20.4355 8.12605 20.6235 7.96368 20.6526 7.74663C20.7192 7.25105 20.8166 6.74858 20.9431 6.25913C21.4285 4.44897 22.1905 3.20921 22.6931 2.91991C22.7717 2.87462 22.8178 2.86435 22.8315 2.87291C23.1015 2.94723 23.4194 4.39924 22.7871 6.75682C22.5393 7.69908 22.1735 8.59049 21.7568 9.26643C21.6901 9.37411 21.6747 9.50481 21.7106 9.62616C21.7478 9.74549 21.4142 9.46051 24.6178 11.759C25.6142 12.4743 25.9593 13.778 25.4551 14.9325C25.0654 15.8299 24.1136 16.4091 23.0319 16.4091H22.5619C22.3209 16.4091 22.1244 16.6047 22.1244 16.8466V20.3356C22.1244 20.4202 22.1483 20.5022 22.1944 20.5732L27.311 28.4974C27.4255 28.6811 27.3571 28.8495 27.3212 28.9127C27.2875 28.977 27.1781 29.1247 26.9648 29.1247H24.9797C24.8396 29.1247 24.708 29.0503 24.6311 28.9316L20.7466 22.7683C20.6799 22.6632 20.5706 22.5905 20.4492 22.57C20.3142 22.5478 20.1997 22.5811 20.1023 22.6598L17.9148 24.4098C17.7268 24.561 17.696 24.8362 17.8464 25.025C17.9985 25.2139 18.2754 25.2446 18.4617 25.0934L20.2663 23.6491L23.8927 29.4022C24.132 29.7754 24.5422 29.9997 24.9797 29.9997H26.9692C27.4341 29.9997 27.8628 29.745 28.0887 29.3358C28.3156 28.9223 28.2555 28.4301 28.0477 28.0254Z" fill="black"/>
</svg>
